<?xml version="1.0" encoding="utf-8"?>
<!-- Generator: Adobe Illustrator 18.0.0, SVG Export Plug-In . SVG Version: 6.00 Build 0)  -->
<!DOCTYPE svg PUBLIC "-//W3C//DTD SVG 1.1//EN" "http://www.w3.org/Graphics/SVG/1.1/DTD/svg11.dtd">
<svg version="1.1" id="Page_1" xmlns="http://www.w3.org/2000/svg" xmlns:xlink="http://www.w3.org/1999/xlink" x="0px" y="0px" width="96px" height="96px"
	 viewBox="0 0 95.5 95.5" enable-background="new 0 0 95.5 95.5" xml:space="preserve">
	<path fill-rule="evenodd" clip-rule="evenodd" fill="black" d="M47.7,0c26.4,0,47.7,21.4,47.7,47.7S74.1,95.5,47.7,95.5
		S0,74.1,0,47.7S21.4,0,47.7,0L47.7,0z M47.7,9.1c21.4,0,38.7,17.3,38.7,38.7c0,14.2-7.7,26.7-19.2,33.4c2.4-8.4,3.4-17,3-26.9
		c2.5,0.7,3.9,1.1,6.4,1.9c-2.9-7.3-6-13.9-10.1-20.6c-3.6,6.9-8.5,13.4-13.4,18.5l8-0.5c-6.9,12.3-16.6,18.3-28.9,20
		C29.4,59.7,31.5,37,47.2,26.4l1.6,7.6c3.1-4.9,9.1-11.4,13.6-15.9c-7.1-2.8-15.3-3.7-23.3-2.2c1.3,1.1,2.9,2.5,4.2,3.6
		C25.6,27,15.9,39.3,9.5,53.6c-0.3-1.9-0.4-3.9-0.4-5.8C9.1,26.4,26.4,9.1,47.7,9.1L47.7,9.1z"/>
</svg>
